# xmcd CD database file
#
# Track frame offsets:
#	150
#	18902
#	35430
#	53401
#	71158
#	91465
#	103671
#	122680
#	142109
#	161472
#
# Disc length: 2347 seconds
#
# Revision: 0
# Processed by: cddbd v1.5.2PL0 Copyright (c) Steve Scherf et al.
# Submitted via: CDex 1.51
#
DISCID=8109290a
DTITLE=Raices Cubanas - Raices Cubanas
DYEAR=2006
DGENRE=Salsa
TTITLE0=Chan Chan
TTITLE1=Sarandonca
TTITLE2=El Amor es tan Bonito
TTITLE3=Cubana
TTITLE4=Dos Almas
TTITLE5=El Lechon
TTITLE6=El Cuarto de Tula
TTITLE7=Guantanamera
TTITLE8=Rico Vacilon
TTITLE9=La Caminadora
EXTD=YEAR: 2006
EXTT0=
EXTT1=
EXTT2=
EXTT3=
EXTT4=
EXTT5=
EXTT6=
EXTT7=
EXTT8=
EXTT9=
PLAYORDER=
